/* XPM */
static char *_8f67c6ce408441ca32e3b42abdc9cacQyuDCGpjSnmVqQ9K[] = {
/* columns rows colors chars-per-pixel */
"32 32 104 2 ",
"   c #0B020B",
".  c #766136",
"X  c #1F1F7F",
"o  c #5A5146",
"O  c #DD0E0C",
"+  c #DC1F1B",
"@  c #E20002",
"#  c #E10A06",
"$  c #E02320",
"%  c #E22B29",
"&  c #86622F",
"*  c #5B9E3C",
"=  c #57A03F",
"-  c #5CA23D",
";  c #63A337",
":  c #62A43D",
">  c #64AC3F",
",  c #69AC3E",
"<  c #70AE3F",
"1  c #70B134",
"2  c #7BB53E",
"3  c #7ABC3C",
"4  c #599F43",
"5  c #57A145",
"6  c #5BA243",
"7  c #5FA840",
"8  c #5AA048",
"9  c #65A645",
"0  c #64AB44",
"q  c #69AB42",
"w  c #64AC49",
"e  c #72AF43",
"r  c #66B143",
"t  c #6CB444",
"y  c #6FBB45",
"u  c #6DB449",
"i  c #6FB949",
"p  c #73B344",
"a  c #7BB543",
"s  c #72BA44",
"d  c #7CBA43",
"f  c #76B548",
"g  c #79B649",
"h  c #70B849",
"j  c #7CB948",
"k  c #7EC040",
"l  c #84B73E",
"z  c #81BA3D",
"x  c #89BF3E",
"c  c #85C23C",
"v  c #8DC33D",
"b  c #91C53C",
"n  c #81B740",
"m  c #81B941",
"M  c #81BF48",
"N  c #D6936F",
"B  c #82C245",
"V  c #8DC441",
"C  c #84C249",
"Z  c #1F3486",
"A  c #373994",
"S  c #0000AA",
"D  c #7378A6",
"F  c #72808C",
"G  c #7C879F",
"H  c #848C9A",
"J  c #948E90",
"K  c #A4A3B3",
"L  c #E7A580",
"P  c #EAA984",
"I  c #ECB291",
"U  c #EBBDA5",
"Y  c #A8AAC2",
"T  c #B4B3CA",
"R  c #B6BDC8",
"E  c #B0B0D0",
"W  c #C1BDD1",
"Q  c #BCC3CA",
"!  c #CBC8CF",
"~  c #DBD4C9",
"^  c #C3C3D3",
"/  c #C8C1D7",
"(  c #C6C6D9",
")  c #C9C6D9",
"_  c #CECEDD",
"`  c #CBD0DC",
"'  c #D1D3D6",
"]  c #D8D6D8",
"[  c #EAD6CC",
"{  c #E6DDD3",
"}  c #DFE1DB",
"|  c #EEEFDE",
" . c #DADFE2",
".. c #D7D7E8",
"X. c #DBD7ED",
"o. c #DCE3E1",
"O. c #E1E0E5",
"+. c #E2E4E7",
"@. c #EAECE7",
"#. c #E3E2EB",
"$. c #EBECEB",
"%. c #EEEDEB",
"&. c #ECEBEC",
"*. c white",
/* pixels */
"6 6 4 9 w > 4 p m     u V i u     s f d 9     6 6 6 0 > - * j z ",
"6 q 9 u t 7 9 p   S S     t   S S   t     S S   0 0 u 0 9 0 d a ",
"p V a V v 4 a p   S P S S   S S S S   S S P S   n z V 6 a d s s ",
"p V n V x 4 n s   S P P S S S S S S S S N P S   n z V 6 p d s s ",
"8 w 0 B v 4 4   S S N P P S S S S S S N P P S   w , v 5 6 6 s s ",
"h h 6 4 : h u   S S S S S S S S S S S S S S S   = - * i u u - C ",
"s s           S S S S *.*.*.S S S *.*.*.*.S S S - 5 5 s     5 V ",
"k   R Q J J J K S S *.*.*.*.*.S *.*.*.*.*.S S S         ' J   w ",
"s   J  .^ ^ J %.S S *.*.*.    *.*.    *.*.S S J | J ` ` ! K   t ",
"s   W +.O.O.J &.S S *.*.*.    *.*.    *.*.S S J %.J @.@.] T   t ",
"g   J o.#.#.J } S S *.*.*.*.*.*.*.*.*.*.*.S S J o.J $.$._ J   t ",
"k   / _ ....J ) S S N *.*.*.P     P *.*.*.S S J E ( X.X.) T   u ",
"V   J J J J ) Y S S P P P P P N N P P P P S S J / ^ J J J J   - ",
"v v         G S P P S P P N P     P N P S S P J D F       p 3 - ",
"V V V v v 4 t     P P S S S S     S S S S P &     v V 6 r 2 V - ",
"a 6 5 M v 0 6 6 9     N P S P     P S P N .   6 5 ; v 0 6 4 4 j ",
"2 5 4 M V 0 6 6 - d w     P P U | N P o o   z 6 4 ; v 0 8 6 4 d ",
"< 4 a z l 6 t - 4 s d S S N P I [ I P     n d 5 a 2 n 6 t i 5 p ",
", ; d d j 6 t 0 - s n S S P P P P N P 4 j d 2 * j d d 6 t i 6 i ",
"3 b i s s 0 4 u i s M S S A P P L P Z 4 5 0 3 b p s s 0 6 * y y ",
"0 s s - 4 4 4 d v - >     S S N L S S   V p 7 s s i - 6 6 * V - ",
"0 r t 0 7 0 q d       S S S         S S S   6 r t u 8 q 0 , x > ",
"7 > t 7 0 0 q   *.*.X S S   t q 6 3   S S S   r t u 8 , 0 , z q ",
"6 - 0 w 0 a   *.*.*.X     v j 6 w c V     *.*.  0 w q d 2 d s i ",
"c n z : 5   @ # *.*.X   s 4 : n l 6 9 H   *.*.*.  d 6 y s s t 6 ",
", s s -   @ @ @ @ *.*.  - 4 > s s g e : s   *.@ O       s s - C ",
"q y s   *.*.*.*.@ @ @   6 5 - s s n < 6   @ @ @ @ *.*.*.  h 4 B ",
"5 6 6   @ @ @ @ { ~ @   v s t 8 s s s n     @ @ *.% @ @ @   n n ",
"q 3   @ @ @ @ # @ Q   w j 7 9 w c 0 0 s t   O *.@ @ @ $ @ @   s ",
"q z   @ @ @ @ @ @ @   0 s 6 7 w c q > s t 9   *.@ @ O O + @   d ",
"q 2   @ @ @ @ @ @   u 0 r f p p 1 p t > B u 7   @ @ @ @ @ @   s ",
"0 0   @ @ @ @ @ @   s > 6 b B a 5 v m 8 V p 6 w               s "
};
