/* XPM */
static char *_2138ba03466459be57ac701b29e2e3c0f8DQwvLkl1nCq3L[] = {
/* columns rows colors chars-per-pixel */
"32 32 162 2 ",
"   c #020102",
".  c #080000",
"X  c #0B020B",
"o  c #0E0E0E",
"O  c #170202",
"+  c #1C0101",
"@  c #121212",
"#  c #1B1717",
"$  c #1C1C1C",
"%  c #240101",
"&  c #2E0101",
"*  c #341D14",
"=  c #392218",
"-  c #39391A",
";  c #16122D",
":  c #252424",
">  c #2B2B2B",
",  c #363228",
"<  c #353535",
"1  c #3D3D3D",
"2  c #4B0404",
"3  c #560202",
"4  c #5D0B18",
"5  c #5A1E1F",
"6  c #670202",
"7  c #7D0000",
"8  c #7C0D0D",
"9  c #651919",
"0  c #61252E",
"q  c #653B35",
"w  c #17185D",
"e  c #211D42",
"r  c #361B44",
"t  c #1A1A60",
"y  c #1C1D75",
"u  c #1F1F7F",
"i  c #1F207F",
"p  c #302D6F",
"a  c #2A2971",
"s  c #21217D",
"d  c #444444",
"f  c #484547",
"g  c #4A4A4A",
"h  c #414153",
"j  c #524753",
"k  c #595553",
"l  c #7F477E",
"z  c #626262",
"x  c #6C6C6C",
"c  c #737373",
"v  c #7E7E7E",
"b  c #830000",
"n  c #8C0101",
"m  c #930101",
"M  c #9B0304",
"N  c #871717",
"B  c #931919",
"V  c #A10101",
"C  c #AD0606",
"Z  c #B40102",
"A  c #BC0102",
"S  c #B60806",
"D  c #AC1D1B",
"F  c #942314",
"G  c #982526",
"H  c #C50001",
"J  c #C90707",
"K  c #D30101",
"L  c #DB0001",
"P  c #D40C0A",
"I  c #DF110E",
"U  c #C91E1F",
"Y  c #E10001",
"T  c #E11B16",
"R  c #CF2525",
"E  c #D32829",
"W  c #CF362C",
"Q  c #D43B30",
"!  c #976009",
"~  c #9B483B",
"^  c #DF4537",
"/  c #E04537",
"(  c #E14638",
")  c #9E4B44",
"_  c #A06141",
"`  c #9C696A",
"'  c #DF5A4A",
"]  c #E06D5B",
"[  c #5B9E3C",
"{  c #57A03F",
"}  c #5CA33E",
"|  c #62A43C",
" . c #64AC3E",
".. c #69AA3E",
"X. c #70AE3F",
"o. c #67B03E",
"O. c #75B13D",
"+. c #7AB53D",
"@. c #77B83B",
"#. c #559D45",
"$. c #599F42",
"%. c #589F49",
"&. c #56A145",
"*. c #5BA243",
"=. c #5FA943",
"-. c #63A644",
";. c #64AB44",
":. c #69AC43",
">. c #64AC48",
",. c #68AC49",
"<. c #72AE41",
"1. c #66B142",
"2. c #6BB345",
"3. c #6FBA44",
"4. c #6CB34A",
"5. c #6FB949",
"6. c #73B443",
"7. c #7CB543",
"8. c #73BA44",
"9. c #7CBA43",
"0. c #74B448",
"q. c #70B949",
"w. c #7DC042",
"e. c #81BB3D",
"r. c #89BF3E",
"t. c #89C037",
"y. c #85C23C",
"u. c #8DC33E",
"i. c #92C537",
"p. c #91C53C",
"a. c #CCCD39",
"s. c #81B740",
"d. c #81B941",
"f. c #CD8E7E",
"g. c #E1866B",
"h. c #E48575",
"j. c #E29779",
"k. c #83C144",
"l. c #8EC640",
"z. c #8CC542",
"x. c #84C249",
"c. c #221E81",
"v. c #242481",
"b. c #3C3A8C",
"n. c #433780",
"m. c gray52",
"M. c #898989",
"N. c #949182",
"B. c gray57",
"V. c #99999A",
"C. c #928DA9",
"Z. c #A5A5A5",
"A. c #AEAEAE",
"S. c #B3B3B3",
"D. c #BBBBBB",
"F. c #E09B82",
"G. c #E1B7A5",
"H. c #DFC7BC",
"J. c #C9C8C9",
"K. c #D5D5D5",
"L. c #DFDAD8",
"P. c white",
/* pixels */
"*.*.*.-.,. .*.6.9.e.:.4.z.q.2.*.8.8.9.9.{ *.*.*.[ *.;.;.} } e.e.",
"*.:.-.,.2.;.-.6.9.+.,.,.y.2.>.*.8.2.X.9.-.*.*.:.-.:.4.-.-.;.7.7.",
"6.z.s.z.r.$.7.6.8.8.;.>.8.&.-.>.z.-.;.3.8.;.;.u.+.e.z.*.7.9.8.8.",
"<.z.7.z.z.$.e.8.3.8.>.=.q.&.} >.z.-.=.3.8.;.;.z.d.e.u.*.6.9.8.8.",
"=.>.;.x.r.$.$.4.8.3.@.1.%.i.z.d.&.t.e.$.z.6.&.,.>...z.&.$.$.8.8.",
"5.5.*.*.| 0.4.=.} z.w.1.*.b b b b b b ,.@.6.q.8.{ } [ 5.q.4.*.x.",
"8.5.&.&.*.8.8.} &.u.b b b K P L L H b N B 8.8.8.*.*.*.3.3.5.#.z.",
"w.8.1.2.a.a.;.h.' S D f.G.j.T V Q ( ^ ^ S m m 8.:.2.1.2.;.=.#.>.",
"8.z.d.8.X a.a.T Z Z / H.L.j.~ % q ( ( ( I W M C y.w.3.;.>.2.;.2.",
"8.a.a.a.9.X a.X X A P ] F.g.J 2 . 3 Y Y Y I L n m z.w.4.;.;.;.2.",
"8.o @ 8 u b.X u u X X L Y Y Y Y + & K Y Y Y Y L b z.w.>.;.;.2.2.",
"9.k.s X 4 u X u u i w X K Y Y Y 6   3 A Z Z H L b V u.2.{ { -.2.",
"u.u.P.c.X u u P.P.u u X H Y Y Y A % M b 7 7 n M 7 n 4.%.2.2.3.} ",
"u.P.P.P.c.u P.P.P.P.u y X L Y Y L Z S R E U D N 5 5 G %.2.X.V.{ ",
"u.P.X P.c.u P.X X P.u u X L Y K A 2 > S.K.Z.V.V.V.V.l J.2.J.S.J.",
"+.P.X P.c.u P.  X P.i u X X H m 6 o g c K.D.v v m.v ,.k o V.B.x ",
"6.c.P.c.v.u u P.P.i i i y X b l n.& B f v f f g f d g 1   d d g ",
"<.c.t c.a u u c.i i _ a.a.a.j C.h p * k F ! M M M 9 > X 5.X m X ",
"X.X f S.X S.d X y _ a.a.N., a.- e r + .         $ $ X &.5.5.X 5.",
"+.X S.S.q S.S.g i ; ` ) _ a.a.a.0 O O : : > > > c X w.=.*.&.3.3.",
"1.8.X S.X S.S.> 1 @ D.S.8 _ a.a.a.@ d 1 g m.M.X @ 4.[ $.*.[ u.} ",
"=.1.X S.=.S.X X o o A.d # = _ _ , d M.M.x x X X 4.4.*...;...y. .",
"=.o.X X *.X ;.9.k.@ v   $ =     > 1 1 1 d @ X 1.2.5.-.;.;...y.;.",
"{ } ;.>.,.d.9.9.8.  $     > X       X z c : X *.>.;.;.9.7.9.3.8.",
"r.e.d.| *.8.8.3.2.@       < d X X X d c d X u.d.e.7.*.3.8.8.2.*.",
"..6.8.} *.x.8.;.*.x.o       < 1 d x x f X X | O.6.q.&.z.8.8.{ x.",
";.8.8.} *.z.8.} $.u.w.2.      o 1 1 X o 8.;.=.3.8.q.$.u.@.q.*.z.",
"*.*.*.=.,.1.*.0.e.s.,.:.u.8.  X o o 8.9.*.*.*.*.*.#.-.>.&.$.e.9.",
":.e.O.d.+.*.<.6.9.8.;.>.9.*.-.>.t. .;.8.2.=.-.e.O.O.e.*.<.<.8.9.",
"2.e.O.+.y.=.<.7.8.8.:.>.9.*.=.>.y.;. .8.2.;.-.+.O.+.e.*.<.6.8.8.",
";.+.O.z.u.$...2.3.8.4.:.;.8.q.6.O.9.2.;.x.:.-.@.6.O.z.*. ...8.8.",
"*.;.>.d.u.$.*.2.8.8.8.:.&.p.y.+.&.d.d.$.u.+.*.>.>...z.$.$.[ 8.8."
};
