/* XPM */
static char *_cad702902cc4e7fa84467d427c55458Cx0TMwXZsmyWAMyv[] = {
/* columns rows colors chars-per-pixel */
"32 32 95 2 ",
"   c black",
".  c gray4",
"X  c #131321",
"o  c #131331",
"O  c #373B3B",
"+  c #630000",
"@  c #3E712F",
"#  c #3E6F30",
"$  c #44752D",
"%  c #49762E",
"&  c #467A2D",
"*  c #4B7B2D",
"=  c #547E2D",
"-  c #447932",
";  c #4A7D32",
":  c #314040",
">  c #364C4C",
",  c #4C5252",
"<  c #535959",
"1  c #626258",
"2  c #656565",
"3  c #6A6A6A",
"4  c #677B7B",
"5  c #747474",
"6  c #7C7C7C",
"7  c #ED1C24",
"8  c #945242",
"9  c #55812E",
"0  c #5B862C",
"q  c #4E8230",
"w  c #5A9F3F",
"e  c #628A2C",
"r  c #5CA23D",
"t  c #62A43B",
"y  c #64AC3E",
"u  c #6AA93D",
"i  c #70AE3F",
"p  c #75B13D",
"a  c #7AB53D",
"s  c #579F45",
"d  c #599F42",
"f  c #579F49",
"g  c #56A145",
"h  c #5BA243",
"j  c #63A644",
"k  c #64AB44",
"l  c #6AAC43",
"z  c #64AC48",
"x  c #68AC49",
"c  c #72AE41",
"v  c #66B142",
"b  c #6BB344",
"n  c #6FBB44",
"m  c #6DB349",
"M  c #74B343",
"N  c #7CB544",
"B  c #73BA44",
"V  c #7CBA43",
"C  c #74B448",
"Z  c #70B849",
"A  c #7EC142",
"S  c #81BB3E",
"D  c #89BF3E",
"F  c #85C13E",
"G  c #8DC43E",
"H  c #91C53C",
"J  c #DDDD03",
"K  c #D9D909",
"L  c #E2DB00",
"P  c #E7E700",
"I  c #81B740",
"U  c #81B941",
"Y  c #FFAA55",
"T  c #84C144",
"R  c #8CC542",
"E  c #84C249",
"W  c #0000AA",
"Q  c #818181",
"!  c #8D8D8D",
"~  c #8D9292",
"^  c gray58",
"/  c #9B9B9B",
"(  c gray62",
")  c #A0A0A0",
"_  c #A4A4A4",
"`  c #C2CDCD",
"'  c #C3CECE",
"]  c #CACACA",
"[  c gray81",
"{  c #C6D1D1",
"}  c gray83",
"|  c gray85",
" . c gray88",
".. c #E7E7E7",
"X. c gray97",
/* pixels */
"h h w j z y h c V a l n R Z m h n B V V r d d h r h k y r r N S ",
"h l x x b k j M V a x x D b v h B b b V j h h k j j m j k j I V ",
"c R N R G d N B B B z j m h h 4 ` ` ~ B B k k R a S G h N V B B ",
"M R 9 ' ' ' ' ' ` ' ' ' ' ' ' ' ` ` ` ' ` ' ' ' ' ' ' ' ' { ' B ",
"h z - ` W W W W W W W W W W W W W W o P X W P P P P P P P P ` B ",
"m n # ' P W W W W   Y W W W W W W W W W W W P P P P P P P P ` E ",
"B Z # ' P P W W W   Y Y Y W W W W W W W W W P P P P P P P P ` R ",
"A A ; ' P P P P W   Y Y Y W W W W W W W W W P P P P P P P P ` z ",
"Z F 0 ' P P P P W   Y W W X.X.X.W W W W W W K   P P ^   P P ' b ",
"B R e ' P P W W W W W W W X.X.X.X.W W X.X.X.  ]   P }   P P ' b ",
"B G e ' P W W W W W W W W     X.X.W W X.X.X.  [   P }   P P ' b ",
"A V e ' W W W W W W W W W     X.X.X.W   X.X.  [ [ P ]   P P ` b ",
"G G ; ` W W W W W W W W W     X.X.X.    X.X.  ] _   !   J P ' h ",
"G G 9 ' P P P W W W W W W     X.X.X.    X.X.  [   6 } ]   P ' r ",
"G R e ' P P P W W W W W W X.X.X.X.X.X.X.X.X.P   ..5 |  .( . ` r ",
"a h @ ' P P W W W W W Y Y Y Y Y Y Y Y     Y P 6 (   6 2 ) . ` N ",
"a h # ` P P W W W W W Y Y Y + 7 7 8 Y Y Y Y L   3 ^   2 6 . ' V ",
"i d = ` K W W W W W W W Y Y Y 7 7 Y Y Y Y P P     / ! (   P ' C ",
"u r = ' 1 W W W W W W W W W Y Y Y Y Y Y P P P   Q   5   P P ' n ",
"A H q ' ' ' ' ' ` ` ` ' ' ' ` ` ` ' ' ' ` ' ' ` ' ' ' ' ` ` ` n ",
"k B B $ ' ` ` ' ` ` ` ` ' ' ` ` ` ` ' ' ' ` ` ` ` ` ` ` ` ' e r ",
"t v n h $ - % = 0 & * * % * * : ` ` O * = % $ & ; ; $ % $ % S y ",
"h y n h h l l V A v b y k u * > ` ` , l V l h k b m j y k u F k ",
"r r k z z S V B n B B B B H 9 > ` ` < G r w w d k j k N V V B B ",
"G a S t g B B n m h y n B d $ > ` ' < S B S G U S N h B B B b h ",
"i B B y h E B k r E A v r s $ > ` ' < r B k t B B Z d R B n h E ",
"k n n r h R B r h G V b h d $ > ` ` < h B k h B B m d G B C d R ",
"h h h h z z h M U U x l G n ; > ` ` < U h h h h d d z z h h a N ",
"l S p U S r c B V B z k V h $ > ` ` < B b j h S p p a h c p B B ",
"l S i S F h c N B B l z V j $ > ` ` < B b j k S p p F h c M B V ",
"l a i R G d u b B B b z z B ; > ' ' < k T b k a M p R h u u B n ",
"h k z T D d d b B B B y d H R a d D I f G p h z z y G d s r B B "
};
