/* XPM */
static char *_e2581c1b1564e93ff55212a65679d38Kxiq4t44stw4N2lK[] = {
/* columns rows colors chars-per-pixel */
"32 32 96 2 ",
"   c #340303",
".  c #2F1E18",
"X  c #373B3B",
"o  c #4C0302",
"O  c #52120C",
"+  c #630000",
"@  c #720D16",
"#  c #4B271B",
"$  c #5F2216",
"%  c #5A271A",
"&  c #5C2A1C",
"*  c #4B2626",
"=  c #403030",
"-  c #493030",
";  c #753523",
":  c #3E712F",
">  c #3E6F30",
",  c #44752D",
"<  c #49762E",
"1  c #467A2D",
"2  c #4B7B2D",
"3  c #547E2D",
"4  c #597F2E",
"5  c #427330",
"6  c #447932",
"7  c #4A7D32",
"8  c #314040",
"9  c #364C4C",
"0  c #4C5252",
"q  c #535959",
"w  c #676746",
"e  c #69694C",
"r  c #6D6D55",
"t  c #677B7B",
"y  c #843523",
"u  c #833C28",
"i  c #C40424",
"p  c #DF493D",
"a  c #55812E",
"s  c #5B862C",
"d  c #4E8230",
"f  c #578331",
"g  c #5A9F3F",
"h  c #628A2C",
"j  c #5CA23D",
"k  c #62A43B",
"l  c #64AC3E",
"z  c #6AA93D",
"x  c #70AE3F",
"c  c #75B13D",
"v  c #7AB53D",
"b  c #579F45",
"n  c #599F42",
"m  c #56A145",
"M  c #5BA243",
"N  c #63A644",
"B  c #64AB44",
"V  c #6AAC43",
"C  c #64AC48",
"Z  c #68AC49",
"A  c #72AE41",
"S  c #66B142",
"D  c #6BB344",
"F  c #6FBB44",
"G  c #6DB349",
"H  c #74B343",
"J  c #7CB544",
"K  c #73BA44",
"L  c #7CBA43",
"P  c #70B849",
"I  c #7EC142",
"U  c #81BB3E",
"Y  c #89BF3E",
"T  c #85C13E",
"R  c #8DC43E",
"E  c #91C53C",
"W  c #E5E302",
"Q  c #E7E700",
"!  c #81B841",
"~  c #81B941",
"^  c #D79979",
"/  c #82C041",
"(  c #84C144",
")  c #8CC242",
"_  c #8AC441",
"`  c #8BC542",
"'  c #8EC645",
"]  c #84C348",
"[  c #85C249",
"{  c #3D3A97",
"}  c #393898",
"|  c #8D9292",
" . c #C2CDCD",
".. c #C3CECE",
"X. c #C6D1D1",
"o. c gray97",
/* pixels */
"M M n N C l M G J U V Z ' G S M K K K L M M M j M M B B j g ! U ",
"M V Z Z D B N H L L Z Z T D Z M I S H L M M M V N N G B B B L L ",
"A ` ! ) T n v L F K B B K M M t  . .| K K Z B ` v v ` j J L K K ",
"H ` 4  . . . . . . . . . . . . . . . ... . . . . . ..... .X. .K ",
"M C 6  . .r w w w w w w w w w w w w w w w w w w w w w w e  . .K ",
"P P 5  . .Q Q Q Q Q Q Q Q Q Q Q Q Q Q Q Q Q Q Q Q Q Q Q Q  . .[ ",
"K K >  . .Q Q Q Q Q Q Q Q Q ^ ^ ^ ^ ^ ^ Q W Q Q Q Q Q Q Q  . .` ",
"I K 7  . .Q Q Q Q Q Q Q W ^ ^ ^ ^ ^ ^ ^ ^ Q Q Q Q Q Q Q Q  . .Z ",
"P ` s  . .Q Q Q Q Q Q Q ^ ^ ^ ^ ^ ^ ^ ^ ^ ^ Q Q Q Q Q Q Q  . .D ",
"K ` h  . .@ @ Q Q Q Q Q ^ ^ { { ^ ^ { } ^ ^ Q Q Q Q Q @ @  . .G ",
"K R h  . .@ @ @ @ @ @ Q ^ ^ { } ^ ^ { { ^ ^ Q @ @ @ @ @ @  . .D ",
"L I h  . .Q Q @ @ @ @ @ @ @ { } p p { } @ @ @ @ @ @ @ Q Q  . .G ",
"R R 2  . .Q Q Q @ @ @ @ @ @ @ @ p p @ @ @ @ @ @ @ @ Q Q Q  . .j ",
"E R a  . .@ @ @ @ @ @ @       * - = *       @ @ @ @ @ @ @  . .g ",
"R ` h  . .@ @ @ @ @ @ @ o % # o.o.o.o.. & O @ @ @ @ @ @ @  . .j ",
"L M >  . .i i i i i i i i y ; o.o.o.o.$ u i i i i i i i i  . .L ",
"v M >  . .i i i i i i i i i i o.o.o.o.i i i i i i i i i i  . .L ",
"A n 3  . .i i i i i i i i i i + + + + i i i i i i i i i i  . .K ",
"z k a  . .i i i i i i i i i i i i i i i i i i i i i i i i  . .K ",
"I R d  . . . . . . . . . . . . . . . . . . . . . . . . . . . .F ",
"B K K 1  . . . . . . . . . . . . . . . . . . . . . . . . . .h j ",
"j l D B , 2 , a s 1 2 2 , 3 2 8  . .X 2 a < : 1 7 7 5 < < < U B ",
"M S D M M Z V L I l D x B z 2 9  . .0 V L V M V G G M V B z T l ",
"j M S S Z L L K K F F F K E a 9  . .q R n g j g B V B L L L K K ",
"T U U k M K K F G M l K F M , 9  . .q ! K / R U v J m F K K D M ",
"z K K l M [ K M j [ L S j M , 9  . .q k K z k K K P M ` K F j [ ",
"B K K M M R K l n ` I D M n , 9  . .q n K V M K K G n R K G b ` ",
"M n M M Z C M P ! ! C V R F 6 9  . .q L M m M M n M Z B M n ! ! ",
"D U c ! U k H K L K V B L B , 9  . .q K D M B v c c U M c z K L ",
"V v c U v M A L K K Z B K M , 9  . .q K D B N U c c T M A H K K ",
"V v c ~ R n z H F K D Z V P f 9  . .q B I G M v H c ` M z z K K ",
"M B Z ( Y n M Z K F K z n E ! L m Y ! n R L M B Z z R n m M K K "
};
