/* XPM */
static char *_13cc34ce9e744aecd39f89c7856117cLMT4diAi1BsG9Ubo[] = {
/* columns rows colors chars-per-pixel */
"32 32 56 1 ",
"  c #5C9F3D",
". c #57A03F",
"X c #5CA23D",
"o c #63A337",
"O c #62A53C",
"+ c #64AC3E",
"@ c #69AB3E",
"# c #72AE3F",
"$ c #67B03E",
"% c #70B134",
"& c #75B23D",
"* c #7AB63D",
"= c #76B83D",
"- c #7BBB3D",
"; c #549C44",
": c #599F43",
"> c #579F49",
", c #57A045",
"< c #5BA243",
"1 c #5FA842",
"2 c #5CA349",
"3 c #63A644",
"4 c #64AB44",
"5 c #6AAC43",
"6 c #64AC49",
"7 c #68AD49",
"8 c #72AE42",
"9 c #66B043",
"0 c #6BB444",
"q c #6FB944",
"w c #6CB349",
"e c #6FB949",
"r c #73B443",
"t c #7BB542",
"y c #72BA43",
"u c #7CBA42",
"i c #74B448",
"p c #79B649",
"a c #70B949",
"s c #7CB948",
"d c #74C047",
"f c #7DC143",
"g c #84B73D",
"h c #81BB3E",
"j c #89BF3E",
"k c #85C23D",
"l c #8DC43D",
"z c #92C537",
"x c #90C53D",
"c c #9AC93F",
"v c #81B741",
"b c #81B941",
"n c #84C143",
"m c #8CC442",
"M c #84C249",
"N c #91C441",
/* pixels */
"<<<36+<ish57Na6<yyus.<<X<X45:Xsh",
"<537043r-u73k041y0&u3<<4330433u*",
"rmvml:trqy64a<17m31qy43mvhl<tuyy",
"5Nvml:ttyy44a<<6m31qy73mvhm<tuyy",
"264nl:,wqyq$:zjh2kf,xr166@m<;:yy",
"ee<< ie1Xmf9:guyiOO7=raa.X eawXM",
"yy,,<yqX;lf$:vyyq110qyyy<,<qqe;m",
"ddw9094:;9ydyde990530yfy90w941;6",
"ukhy$994+0y02kutt-y4670khfy79030",
"ymlkf74490y&2Nn&=h-0ieqmxNf64390",
"ykxkf94790y=1Nnryhu0y00mxmd64370",
"ffxNl0<110fuqcM4w*tqlsdfxxlqX<10",
"lN0qq<00q<&l*0-lymk9mlll&0q<99yX",
"xx=--,9=-.&hi=hb*nu6Mmzx==-<0q*X",
"Nmmll<qnl<54<lmhlq9<9ulmkll,0rmO",
"y<:sl3::<-65xyqq.qflxzh,<ol7<::u",
"*<<nb5<<:u70xqyyXqulNxh::ol7<,Xt",
"8:rvj<0X:ytbm<<<91<1bvu<ptv<0w;y",
"@osus:e1XyubmX:X0X<,uu&XttsX0a<q",
"ulyyy3:wyyt#<vhvyy9<,4-lyyy7<,qy",
"4yyXX::ul.+$< OyXq0:m01yyi::< lX",
"3$q4145uk+$03#$9<=urt5X90w<555h+",
"1001<45sk3q$40@91f=5t5,49w135@k5",
"..447vuyqyyyqNu<1kmz<XX 794utuy0",
"khvO2qqq0<+yy<5tv<3vybxv-t<qyy0<",
"@ryX<myO<Mf9X:Ortp8Oy@Oyra<nyaXM",
"4qyX2xdX:lf5<<Xyyu&<y710yw:lyy<n",
"<<,4442ivv70lq02yyr-<,<::<74<<vv",
"5h&v-<#uuy46u136k4+y043h&&h<88yu",
"5h&hfX8ryy53y213k44y033*&&n<8ryr",
"5&#nl @rqy077ir0%ir+n01*#*N<@@yy",
"177nj::wyyy4<zm-,jb>mr<44@l<;.yy"
};
