/* XPM */
static char *_963db0fde0347409fa06ab87c7467c788jSN3Q4FDVTv32q[] = {
/* columns rows colors chars-per-pixel */
"32 32 114 2 ",
"   c #333329",
".  c #423F1B",
"X  c #464706",
"o  c #474801",
"O  c #4A4900",
"+  c #555600",
"@  c #5B5901",
"#  c #4C4A1C",
"$  c #5D5C12",
"%  c #6A6A00",
"&  c #6A6909",
"*  c #727100",
"=  c #7D7C01",
"-  c #7A7910",
";  c #77741C",
":  c #5C9F3D",
">  c #57A03F",
",  c #5CA33D",
"<  c #63A337",
"1  c #62A33C",
"2  c #64AC3E",
"3  c #69AA3E",
"4  c #72AE3F",
"5  c #67B03E",
"6  c #70B134",
"7  c #75B23D",
"8  c #7AB53D",
"9  c #76B83D",
"0  c #7CBB3D",
"q  c #559D44",
"w  c #599F42",
"e  c #599E48",
"r  c #57A145",
"t  c #5BA243",
"y  c #5FA842",
"u  c #5AA048",
"i  c #63A644",
"p  c #64AB44",
"a  c #69AC43",
"s  c #64AC49",
"d  c #68AC49",
"f  c #72AE41",
"g  c #66B143",
"h  c #6BB345",
"j  c #6FB944",
"k  c #6CB449",
"l  c #6FB949",
"z  c #73B443",
"x  c #7BB542",
"c  c #72BA44",
"v  c #7CBA42",
"b  c #74B448",
"n  c #70B949",
"m  c #7CB948",
"M  c #7DC042",
"N  c #888703",
"B  c #918F04",
"V  c #959501",
"C  c #A5A304",
"Z  c #AEAE01",
"A  c #B2B200",
"S  c #BEBE01",
"D  c #BDBA0D",
"F  c #84B73E",
"G  c #81BB3D",
"H  c #89BF3E",
"J  c #A4A42F",
"K  c #C0BE01",
"L  c #89C037",
"P  c #85C13D",
"I  c #8DC43D",
"U  c #92C537",
"Y  c #91C53C",
"T  c #9AC93F",
"R  c #C3C203",
"E  c #CBCB01",
"W  c #DBDB00",
"Q  c #C2C211",
"!  c #CCCC18",
"~  c #E5E601",
"^  c #E6E800",
"/  c #F6F600",
"(  c #F7F800",
")  c #FAFB00",
"_  c #FEF70F",
"`  c #FBFC1C",
"'  c #FAFB25",
"]  c #FCFC35",
"[  c #81B741",
"{  c #81BA41",
"}  c #81BF48",
"|  c #84C244",
" . c #8CC542",
".. c #84C249",
"X. c #91C441",
"o. c #FBFC45",
"O. c #FBFC6D",
"+. c #FAFC73",
"@. c #B7B7A6",
"#. c #E3E291",
"$. c #DAD7AA",
"%. c #DFDDBA",
"&. c #FDFAAE",
"*. c #ACACDA",
"=. c #B7B7DE",
"-. c #CCCDD2",
";. c #E4E4C4",
":. c #E6E6CC",
">. c #FBFCCA",
",. c #FBFCD2",
"<. c #CDCEE7",
"1. c #CECCE8",
"2. c #FBFEF7",
"3. c #FDFCFA",
/* pixels */
"t t w i s 2 t z m G a h  .l h , j c c m > t w t , t p p , , x G ",
"t a d d h i i z x 0 d d P h d u M g z 0 i t t p i i k p i p { x ",
"z  .[  .I w x x c c s s n t t s  .i y c c p p  .G F I w x v c c ",
"f  .x  .I w x c c c p y c e y p X.p u j c p p  .[ G  .t b v c c ",
"u s s | H w r k c c c 5 e U I { r L | r X.z t s d 2  .t e t c c ",
"n l t t 1 b k y ,  .M o o ) &.&.&.&.&.$.9 z l l > , : l k k , | ",
"c c r r t j j , t  .o ) ) ) ) ) ) ) ) ] 3.c j j t t r n j l r  .",
"M M g h h h p t o o ^ ) K V V V V V V ! O.3.*.M h g g h p y q p ",
"l P P c j p g o B Z E C + P { 9 x G c @ % J ;.<.G M j d g h i g ",
"c | I P M g 2 o B Z R V o X.| z 9 G 0 O o B %.3.I  .M k p i a k ",
"c I Y P M g i o ) W c 7 y  .| 7 c G x h n o S >.;. .M g p i g k ",
"M M I X.I h X N ) E 0 v h T ..i k 0 x k I o = ) ` Y  .k , , y h ",
"I  .h j j t o A ) Q 9 H 0 h 8 I k I P g X.I $ ) ` j j r h h c , ",
"I I 9 0 9 t o ^ &.@.7 { b 8 G  .0 | v s M  .  ) ` 9 0 t g h 0 , ",
"Y  . .I I w o ^ 2.=.a 2 t I | G U c h t g 0   ( ` L I t h z  ., ",
"x r t m I p o ^ 2.=.d h Y c c j > j c I Y Y   ) ` < I d t w t x ",
"8 w e } I p o ^ 2.=.d a Y l c c > h M I Y Y   ) ) < I d t t r x ",
"f w 9 { F i o E 2.-.x G  .t t t h y t y { { # ) ( x { t h h e c ",
"3 1 v v x w h o +.+.x |  ., : , h , r t m * A ) - x m , h l t j ",
"0 I j c j d e o ) o.x f t F { { 9 c g r e V W ) - c c d t , j j ",
"p c c , t w w o C D #.1.r : , c > h g t ; ^ / - - z : w e : I , ",
"i 5 h p y a p v X o E ) 3.2.2.2.2.' _ ) ) - - g k k t p a 3 H 2 ",
"y 5 h y u a p v o o A W :.,.,.,.,.` ) ~ W - - g h k y a p 3 P i ",
"> > d g s { x v n k       S R S R S S &     : w p p i v { v j j ",
"I 0 F 1 r l c j h t p c O @ @ @ @ @ @ . c G I { 0 m t j c c h t ",
"2 x c , t  .c y , ..M g ,             1 c a 1 9 c b r  .c n , ..",
"p c j y t  .c , w I M a t t , c z m 4 t c p y h c k w L c c t  .",
"r t t y s g t b [ G d h Y j h u c c c { t t w w r t d p t w [ v ",
"a G 7 { G t f x x c p d M u u s P p p c h p i G 7 7 G t f 7 x c ",
"a 0 7 G G y a x c c d p v y i s P 2 2 c g i i G 7 7 | t a z x c ",
"a 9 7 | I w 3 z c c h d p c z z 6 b z p | h y 9 4 7 I t 3 3 c c ",
"i p i } I : r k j c c 5 e U | 0 r H { r I z t d d 3 I t r r c j "
};
