/* XPM */
static char *_26304b8f70a4c83c4444675272411aczAyuTtl6SdyTtWNP[] = {
/* columns rows colors chars-per-pixel */
"32 32 129 2 ",
"   c #424300",
".  c #474800",
"X  c #4E4F01",
"o  c #4C4D0F",
"O  c #5F5F01",
"+  c #56571B",
"@  c #656602",
"#  c #6C6C00",
"$  c #747400",
"%  c #7E7E01",
"&  c #787809",
"*  c #65651A",
"=  c #575725",
"-  c #606033",
";  c #6D6E3C",
":  c #74753D",
">  c #5C9F3D",
",  c #57A03F",
"<  c #5CA23E",
"1  c #63A337",
"2  c #62A43C",
"3  c #63AC3E",
"4  c #69AA3E",
"5  c #70AE3F",
"6  c #67B03E",
"7  c #70B134",
"8  c #75B23E",
"9  c #7AB63D",
"0  c #76B83D",
"q  c #7BBA3D",
"w  c #549C44",
"e  c #599F43",
"r  c #579F49",
"t  c #599E48",
"y  c #57A144",
"u  c #5BA243",
"i  c #5FA943",
"p  c #5AA048",
"a  c #63A644",
"s  c #64AB44",
"d  c #69AC43",
"f  c #64AC48",
"g  c #68AD49",
"h  c #72AE41",
"j  c #66B043",
"k  c #6BB444",
"l  c #6FB944",
"z  c #6CB349",
"x  c #6FB949",
"c  c #73B343",
"v  c #7BB542",
"b  c #72BA44",
"n  c #7CBA43",
"m  c #74B448",
"M  c #70B949",
"N  c #7DC143",
"B  c #838300",
"V  c #8A8A00",
"C  c #8A8A0F",
"Z  c #919102",
"A  c #989701",
"S  c #9C9B00",
"D  c #90901B",
"F  c #A2A200",
"G  c #AEAD03",
"H  c #BCBC03",
"J  c #AAAA1B",
"K  c #8F8F27",
"L  c #95953C",
"P  c #9F9E3E",
"I  c #84B73E",
"U  c #81BB3E",
"Y  c #82BC3D",
"T  c #82BF3C",
"R  c #89BF3E",
"E  c #85C23C",
"W  c #84C13E",
"Q  c #85C33E",
"!  c #8BC23F",
"~  c #8CC23C",
"^  c #8EC53C",
"/  c #8CC53E",
"(  c #8EC63E",
")  c #8FC63E",
"_  c #91C53C",
"`  c #90C53D",
"'  c #C4C300",
"]  c #CDCD01",
"[  c #CECD00",
"{  c #CFCE00",
"}  c #CCCB04",
"|  c #D4D300",
" . c #DAD900",
".. c #E6E500",
"X. c #E7E600",
"o. c #E6E503",
"O. c #E9E81B",
"+. c #E7E72B",
"@. c #808155",
"#. c #878859",
"$. c #81B741",
"%. c #81B941",
"&. c #81BF48",
"*. c #ADAD5C",
"=. c #B2B15F",
"-. c #B7B76F",
";. c #83C143",
":. c #85C143",
">. c #83C245",
",. c #88C340",
"<. c #8CC242",
"1. c #8DC640",
"2. c #8EC640",
"3. c #8EC641",
"4. c #8BC644",
"5. c #8EC544",
"6. c #8EC645",
"7. c #84C348",
"8. c #85C249",
"9. c #86C34A",
"0. c #A3A483",
"q. c #A7A88D",
"w. c #A8A98D",
"e. c #B1B186",
"r. c #BEBF8D",
"t. c #B6B69F",
"y. c #C3C3AC",
"u. c #D0D0A5",
"i. c #F7F7B1",
/* pixels */
"u u e a f 3 u z n I d g 4.M k u b b b n e e e , u , s s , < $.U ",
"u d a z k s a c n 0 g g Q k s p n k k n i i u d a d z s s a %.v ",
"c 3.v <.R e v v b b s s b y a s 4.a a b b s a 3.$.U ~ e v n b b ",
"h 3.$.<.~ e $.b b b f s M X.O.O.J D -.b b s a ( $.U 3.u c n b b ",
"p f s >.~ e y z l b l 6 r X.X.X.F B =.r ` c u f s 4 ( u t u b b ",
"M x u u 2 m z i < 4.N j X.....X.X.X.H z 0 c x x y < < x z z , 7.",
"b b y y u l b < w ( n X.X.[ B     % G S l b b l y u u x l x u ( ",
"N N z j k k s y w k k ..X.] B     % G S k b N N k j z j a i w f ",
"x Q Q b l s k s 3 k b X.X.$   9 v o O } V f k W W N l a k s s k ",
"b ,.( W n j s s s k i.X.X.& = c 0 - * } V z b R ( / n z s s s k ",
"b ! ( W n j 3 s j k X.X.X.P :.c c T w.H B z b ,.( 3.n f s s k k ",
"n N ( ( ( l y a s k X.X.Z : 9.s z 9 w.%  .+ b N ( ` 3.k , u i k ",
"( ( k b x u k k x u X.X.B ; 0 ( x ( U P ..  ! ( l k b u k k b > ",
"( ( 0 0 0 e k b 0 > X.X.B ; U <.q >.n P ..  ( ~ 9 0 q e k k q > ",
"( <.<.( ! u l N ( u X.X.B ; n $.^ l s *.X.  ^ <.! ~ ( u k b ,.< ",
"9 e w 8.~ d t > u n X.X.B ; b b < 7 q L X.  Y u e 1 ( s u e e n ",
"8 y t &.~ d y u t n ....B ; b b , 6 N P o.  9 y t 1 ~ a u u u n ",
"h > v $.I u l < e b ....B ; u y k i i P o.  v w v 9 %.u z z u M ",
"5 < n n n e k s u b X.X.B ; < < l < y P X.  9 < n n n e k x u x ",
"N _ b b M s t z b b B X.V ; T n b b q.$ X.. 0 _ c b b g y > l b ",
"3 b b < u u e n ( > X +.| L < b , k r.H @ c i b b k e < u > 3.< ",
"a 6 k s u d s n Q 3 @.' X.K t.j i u.*.}   s < a z z i d d 4 U 3 ",
"i 6 k a i s d n ;.3 k B X.$   j u C B [   s a j k z a s d 4 Q a ",
", , j s s %.v b l z b O X.F @ -.-.H H A 0.< < e s a s v v n b b ",
"E %.%.2 y b b x k t 4   X.[ B B % X.X.# b ;.~ n q v y b b b k u ",
"4 b b < y 3.b 3 < 7.N j # B } } } F V e.b 4 2 0 b m w 4.b b u 9.",
"s b l < u 3.b < t ( N s u y.X X X . #.y b a a b b z y ` b b u 4.",
"u u e s f s u x %.%.g c ` l k p b b b n u u w e y u s s u e U v ",
"d U 8 n T u h v n b d f n p i f W s 3 b k a a T 8 8 U u h h b v ",
"d T 8 %.U u h b b b s s n u i f W a d b k s a q 8 8 :.u h c b b ",
"s 9 4 3.( e 4 c b l z s s M c c 7 c k 3 >.s a 9 5 9 1.y 4 4 b b ",
"a s a ! R e e z b b b 4 u ` ! n t ! %.y 3.v y s s 4 ( > r < b b "
};
