/* XPM */
static char *e79eb834d3b94d36b62954610cb6649eOMG5nKP9UNQcxgw9[] = {
/* columns rows colors chars-per-pixel */
"32 32 123 2 ",
"   c #424300",
".  c #474800",
"X  c #4E4F01",
"o  c #4C4D0F",
"O  c #5F5F01",
"+  c #56571B",
"@  c #656602",
"#  c #6C6C00",
"$  c #747400",
"%  c #7E7E01",
"&  c #787809",
"*  c #65651A",
"=  c #575725",
"-  c #606033",
";  c #6D6E3C",
":  c #74753D",
">  c #5C9F3D",
",  c #57A03F",
"<  c #5CA23D",
"1  c #63A337",
"2  c #62A33C",
"3  c #63AC3E",
"4  c #69AA3E",
"5  c #70AE3F",
"6  c #67B03E",
"7  c #70B134",
"8  c #75B23D",
"9  c #7AB63D",
"0  c #76B83D",
"q  c #7BBA3D",
"w  c #549C44",
"e  c #599F43",
"r  c #579F49",
"t  c #57A144",
"y  c #5BA243",
"u  c #5FA943",
"i  c #5AA048",
"p  c #63A644",
"a  c #64AB44",
"s  c #69AC43",
"d  c #64AC48",
"f  c #68AD49",
"g  c #72AE41",
"h  c #66B043",
"j  c #6BB445",
"k  c #6FBA45",
"l  c #6CB349",
"z  c #6FB949",
"x  c #73B343",
"c  c #7BB542",
"v  c #72BA44",
"b  c #7CBA43",
"n  c #74B448",
"m  c #70B949",
"M  c #7DC143",
"N  c #838300",
"B  c #919102",
"V  c #989701",
"C  c #9C9B00",
"Z  c #90901B",
"A  c #A2A200",
"S  c #AEAD03",
"D  c #BCBC03",
"F  c #AAAA1B",
"G  c #8F8F27",
"H  c #95953C",
"J  c #9F9E3E",
"K  c #84B73E",
"L  c #81BB3E",
"P  c #89BF3E",
"I  c #85C23C",
"U  c #84C13E",
"Y  c #86C33E",
"T  c #89C33F",
"R  c #8BC23F",
"E  c #8CC23C",
"W  c #8EC53C",
"Q  c #8EC63E",
"!  c #91C53C",
"~  c #90C53E",
"^  c #9AC93F",
"/  c #C4C300",
"(  c #CDCD01",
")  c #CECD00",
"_  c #CFCE00",
"`  c #CCCB04",
"'  c #D4D300",
"]  c #DAD900",
"[  c #E6E500",
"{  c #E7E600",
"}  c #E6E503",
"|  c #E9E81B",
" . c #E7E72B",
".. c #808155",
"X. c #878859",
"o. c #81B741",
"O. c #81B941",
"+. c #80BB42",
"@. c #81BF48",
"#. c #ADAD5C",
"$. c #B2B15F",
"%. c #B7B76F",
"&. c #B9B970",
"*. c #83C143",
"=. c #85C143",
"-. c #83C245",
";. c #88C340",
":. c #8CC242",
">. c #8DC640",
",. c #8EC641",
"<. c #8BC644",
"1. c #8EC544",
"2. c #84C348",
"3. c #86C34A",
"4. c #91C441",
"5. c #A3A483",
"6. c #A8A98D",
"7. c #B1B186",
"8. c #BEBF8D",
"9. c #B6B69F",
"0. c #C3C3AC",
"q. c #D0D0A5",
"w. c #F7F7B1",
/* pixels */
"y y e p d 3 y l b o.s f 4.z a y v z v b t y y < y < a a < < c L ",
"y s p l j a p x c q f f Y j d e M j 8 q u y y a p p l a p p +.b ",
"x ,.c :.R e c c v v d a v r a a <.p a z x s p Q +.L R y c b v v ",
"g ,.o.:.R e K v v v a a &.Z F | | [ u v v a a ,.o.L Q e x b v v ",
"u d d -.E e e l v v v h $.N A [ [ [ b i ! x y d d 4 ,.t r e v v ",
"l z y y 2 l l u < 4.b h D [ [ [ [ [ [ l 0 x z z t < < z m l < =.",
"v v i y y k v < w P o.C S 1     N _ [ [ k v v k y t y v z z w ,.",
"M M h h j j a t w g g C S %     N _ [ [ j v M M s j a j a u w d ",
"z Y Y v j s h a u j N _ O o b c   $ { { a f l Y I M z d j a a j ",
"v =.Q I M h a s h j N ` * - =.x = & { { w.m j ;.Q Q M f a 3 s j ",
"v R Q I M s a a 4 8 N D u ,.=.8 0 J { { { m z T Q ,.b f a 3 a l ",
"b M Q Q E j y u 2 + ] 1 j ^ 3.s l : B [ [ M v M Q E Q j < , a l ",
"Q ,.l v z y j v x   [ J 9 f 0 Q z ; N [ { Q ! Q k j k t j j v < ",
"! Q 0 0 0 > 3 v K   [ J n 0 P +.0 ; N [ [ :.! ! 0 0 q y h j q < ",
"Q :.:.Q R y j *.E   [ J p E =.+.Q ; N [ [ b Q :.E E Q y j x :.< ",
"9 e t @.R a y y e   [ J ! v v k < ; N [ [ ! L y e 1 E s y e e b ",
"9 y e @.E s e y w   } J ! v m l w ; N [ { ! L y e 1 ~ a e y e b ",
"5 e n +.o.y l < e   } J Q y y p j ; N [ { +.c y c c +.y l l e m ",
"5 > b b c y z 3 >   } J ,.< > > j ; N [ [ b 0 < c b b y j z e v ",
"b ! v v v a e l v   } $ 6.K o.+.v ; N [ N s 0 ! v v m a r > z v ",
"3 v v 3 y e e b Q > @ D 8.1 1 8 < H '  .X m 2 v v l > e y > ! < ",
"a 3 j a y a s b -.a   ( #.q.4 4 9.G { / ..s y h j l u p 3 4 L 3 ",
"y 3 h a p a 3 b *.3 . _ 1 N s s   $ [ N 0 s y s j l u s s 3 :.a ",
"y < s a d o.b v z z 5.V D D %.%.@ A { O e > < e s a s c c b v v ",
"I L +.2 y l v z j e 3 # [ } N N N _ [   v *.E o.q n i v v v j y ",
"4 0 v < y <.M < y 3.b 7.N A ( ( _ N # 2 v 4 2 v v n w ,.v v y 3.",
"d v v < y Q k < e Q M j X.. X X X 0.5 e v a y v v l e Q v v t ,.",
"y t t a a d i v +.o.f s Q v j r v v v L y t e e e y a a y y q c ",
"f L 5 +.Y y 4 b b v a a v u p p Y a 3 v j a a L 8 8 L y g x v b ",
"s q 9 q q y x c v v f a b u u d I a s v j a p q 8 0 +.y g g v v ",
"4 9 5 :.E e 4 j k k l s a n z x 7 n j 3 b s a 9 5 9 Q y 4 4 v v ",
"p d s @.! e e j 0 k v s e ! =.K t P o.r Q c e a d 4 ,.e w > v v "
};
