/* XPM */
static char *_0b28481c27640c2b1e6dc83f77f76e2r8I7N8Olasmu47ef[] = {
/* columns rows colors chars-per-pixel */
"32 32 105 2 ",
"   c #74383D",
".  c #944C40",
"X  c #B26340",
"o  c #E37F40",
"O  c #5C9F3D",
"+  c #57A03F",
"@  c #5CA23D",
"#  c #63A337",
"$  c #62A53C",
"%  c #64AC3E",
"&  c #69AB3E",
"*  c #72AE3F",
"=  c #67B03E",
"-  c #70B134",
";  c #75B23D",
":  c #7AB63D",
">  c #76B83D",
",  c #7BBB3D",
"<  c #549C44",
"1  c #599F43",
"2  c #579F49",
"3  c #599E48",
"4  c #57A045",
"5  c #5BA243",
"6  c #5FA842",
"7  c #5CA349",
"8  c #63A644",
"9  c #64AB44",
"0  c #6AAC43",
"q  c #64AC49",
"w  c #68AD49",
"e  c #72AE42",
"r  c #66B143",
"t  c #6BB444",
"y  c #6FB944",
"u  c #6DB349",
"i  c #6FB949",
"p  c #73B443",
"a  c #7CB542",
"s  c #72BA44",
"d  c #7CB941",
"f  c #7FB843",
"g  c #7CBA43",
"h  c #7BBF43",
"j  c #7EBC41",
"k  c #7EB845",
"l  c #78BD44",
"z  c #74B448",
"x  c #79B649",
"c  c #70B949",
"v  c #70BA48",
"b  c #7CB948",
"n  c #74C047",
"m  c #7EC040",
"M  c #7CC043",
"N  c #7BC045",
"B  c #7CC145",
"V  c #7EC244",
"C  c #84B73C",
"Z  c #84B73E",
"A  c #80B93C",
"S  c #81B93E",
"D  c #82BC3D",
"F  c #82BF3C",
"G  c #83BF3E",
"H  c #F8B01D",
"J  c #89C037",
"K  c #85C23C",
"L  c #86C23C",
"P  c #84C13E",
"I  c #85C33E",
"U  c #8BC23F",
"Y  c #8CC23C",
"T  c #8CC03F",
"R  c #8EC53C",
"E  c #8CC53E",
"W  c #8FC63E",
"Q  c #92C537",
"!  c #91C53C",
"~  c #90C43E",
"^  c #90C53E",
"/  c #9AC93F",
"(  c #E7E600",
")  c #81B740",
"_  c #80B840",
"`  c #82BA41",
"'  c #80BB42",
"]  c #81BF48",
"[  c #F49340",
"{  c #83C143",
"}  c #85C143",
"|  c #83C245",
" . c #88C340",
".. c #8CC242",
"X. c #8AC441",
"o. c #8BC643",
"O. c #8EC640",
"+. c #8EC641",
"@. c #8CC442",
"#. c #8BC644",
"$. c #8EC645",
"%. c #84C348",
"&. c #86C34A",
"*. c #91C441",
"=. c #F8DE44",
/* pixels */
"5 5 5 8 q % 5 z f , 0 w #.i r 5 s s f f + 5 5 5 O 5 9 9 @ @ a A ",
"5 0 8 w t 8 8 p f N w w L r 9 7 n t = g 8 5 5 0 8 9 u 8 w 8 f f ",
"p +.) ..T 1 f s s > 9 8 s 5 5 9 #.8 9 s s 9 q ..S A +.1 p f s s ",
"0 *.f ..U 1 S p s i 9 9 i 5 8 w #.8 6 y s 9 8 +.S S +.1 a , s s ",
"7 q q | T 5 4 u s y s = 5 Q ..f 7 F G 4 R p 5 q 8 % +.5 4 5 s s ",
"i i 5 5 $ p y 5 @ ..N r 1 A f =.=.# $ u > p y i 4 @ O i u u 4 %.",
"s s 4 4 5 y i @ < R B = 5 a s ( ( 7 5 t y s s s 5 5 4 y y i 4 U ",
"M v r t t t 9 5 < r y n s h i ( ( t t 8 t s B l r t t t 9 9 < 9 ",
"l I I s s 9 r 9 9 t y = 7 I f ( ( , s 9 w u t I G m y r w r 9 t ",
"s U T I , r 9 9 r t s > 6 *.| ( ( P , t p u y o.^ I B w 9 9 w t ",
"s U R I N q % w r t s > 7 ^ | ( ( G g t p u p U *.o.M w 9 9 9 t ",
"l | R R R t 5 6 8 t , N t / &.( ( f a y K N v V ^ ^ R t @ @ 8 t ",
"R +.t y s 5 r p y 5 ; K , p > ( ( ..f t O.R R R y t y 5 t r s O ",
"R R > > > 1 t s , 4 ; P z > P ( ( { l 9 %.U W ^ : > , 5 r y , + ",
"*.....R U 5 y j Y 5 0 9 3 T U ( ( s t 5 9 , ! ..I Y R 5 t p ..$ ",
": 4 5 ] U w 1 1 5 , q 0 R s y ( ( y N R ^ ^ G 1 5 # Y 9 5 1 4 k ",
": 1 4 %...0 5 5 1 , w u ^ y s ( ( y N U R ^ G 5 5 # R w 5 < < f ",
"e 1 p S S 5 t @ 3 s a S +.5 8 ( ( 5 5 6 ' S g < x a , 5 t u 5 v ",
"* O k f k 5 t 9 @ s : ' ..@ 1 ( ( @ 5 5 b f : @ f f f 5 t v 5 t ",
"I U y s y 9 1 u y , f e 1 S S ( ( s r < 4 9 , U p s s 9 7 + i s ",
"9 s s @ + 5 5 g T + % = 1 O $ H H y 9 5 +.p 8 > y t O 5 5 O R @ ",
"6 % s 9 5 9 0 , { % = y 9 * r [ [ , , 0 a 0 5 = t u 7 & & & A w ",
"6 = r 6 5 w & N | % r = 9 0 0 o [ ; s p p 0 5 r t u 7 9 0 & P % ",
"+ + w 9 q k f f y s s s s R l X X , ^ ^ @ @ + 1 w w 8 f f g s s ",
"U , , # 7 s u y u 1 % l s 5 $ . . 8 8 S s I U f , f 5 y s s t 5 ",
"& s s @ 7 #.s % @ &.h 9 @ 1 9     x e $ s 9 # > s p 4 U l y 5 %.",
"9 s s @ 5 U s @ 1 +.B 0 O 4 @ s p k * 5 s w 7 s s u < R s s < o.",
"1 1 5 8 9 w 7 p ' S q 0 R y t 7 s s s A 1 < 5 5 < 5 w 9 5 1 S , ",
"0 C * ' , 5 p a N s 9 9 s 6 7 w K 9 % s t @ 9 A ; ; P 5 e p f p ",
"0 , ; , I 5 * s s s & w j 5 6 w K 9 9 s t 8 8 , ; ; G 5 0 p f s ",
"0 : ; } T 1 & p s s t 9 w z p p - ' p % | u 5 : p ; +.5 & & y s ",
"5 w w } T O < t s v s 0 < Q | ' < ' ' < R a 5 q q & R < 1 + s s "
};
