/* XPM */
static char *_add85a963184082c2d2a102430acadfCjxkXPkEkLFGLE8i[] = {
/* columns rows colors chars-per-pixel */
"32 32 76 1 ",
"  c black",
". c #00153B",
"X c #2E2D2E",
"o c #030340",
"O c #505050",
"+ c #636D77",
"@ c #ED1C24",
"# c #5B9E3C",
"$ c #57A03F",
"% c #5CA33D",
"& c #63A337",
"* c #62A43C",
"= c #64AC3E",
"- c #69AA3E",
"; c #70AE3F",
": c #75B13D",
"> c #7AB53D",
", c #549C44",
"< c #599F43",
"1 c #658F5E",
"2 c #57A144",
"3 c #5BA143",
"4 c #5FA840",
"5 c #63A644",
"6 c #64AB44",
"7 c #69AB42",
"8 c #63AC48",
"9 c #68AC4A",
"0 c #72AE41",
"q c #66B142",
"w c #6BB344",
"e c #6FBA45",
"r c #6DB44A",
"t c #6FB949",
"y c #73B343",
"u c #7CB543",
"i c #72BA44",
"p c #7DB943",
"a c #73B448",
"s c #70B949",
"d c #7DC041",
"f c #84B73E",
"g c #81BB3D",
"h c #89BF3E",
"j c #85C13D",
"k c #8DC33D",
"l c #81B740",
"z c #81B941",
"x c #81BF48",
"c c #FFAA55",
"v c #85C144",
"b c #8CC541",
"n c #84C249",
"m c #0000AA",
"M c #004AB9",
"N c #626281",
"B c #6F6F8F",
"V c #6D7582",
"C c #7D7D9D",
"Z c #818192",
"A c #8A8A9C",
"S c #878BA4",
"D c #898CA4",
"F c #9797B7",
"G c #9A9AB1",
"H c #A2A2B4",
"J c #A2A2C2",
"K c #B3B3C6",
"L c #B5B5CE",
"P c #BBBBC9",
"I c #C0C0CB",
"U c #D0D0D9",
"Y c #D9D9DB",
"T c #DADAE0",
"R c #ECECF2",
"E c gray97",
/* pixels */
"33<58=3rp>qrbtq  ipp3<<%#38=%#lg",
"375ay55ypd99jw mm wp433857r585pp",
"ybuxk<>ue>58s mmmm si78bugk3yps>",
"yblbb<>ie>88 mmmmmm i75bzgb3upei",
"488vk<<rii  oommmmmo  398-k223ie",
"tt33*yt3% mmmoomm.ommm s$%#ttr%n",
"si223ie% mmmmmoomommmmm 322eis2j",
"dd8www8 mmmmmmmooommmmmm www85,8",
"s   e6 mmmmmmmmmommmmmmm d    6w",
" EEE 1 mmmmmommmmmmmommmm +EEE w",
" DGAZ ommmmoommmmmmm.ommmoZAHSE ",
" CLTYHommmooommmmmmm.ommmoYTECN ",
"k EURE mmoooommmmmmmooommRRUVE %",
" FKIJE ooommommmmmmoomoooJJIPFN ",
" NEEBE commmommmmmmommmm BBNNNN ",
"u       Mmmmmommmmmommm 2      u",
">2<nk9<3 mmmmommmmoommm <&k633<u",
"0#yzf3w mmmmmoommmommmm uuz4rr3s",
"-*ppu3 mmmmmmmommmoommmm zp3wt3e",
"dkiis6 mmmmo  .mm   ommm ss62#ee",
"6pe%<< mmmo 3  m OOO omm e<<3#b%",
"4=e647 mmo w5 m  OOO  om r377-h=",
"4qq458 m. w;8 m XXXXX  o r477-g6",
"2%8q8zp  eeei m OOOOO % 666pp>is",
"h>z*2iisw2=ii m XXXXX kpgu<eiiw3",
"-ii%3ni=3ndq    OOOOO &>ys<bis%n",
"6ii43ki%3kd EEE XXXXX 4sis<k>s2b",
"3334r62azz @@@@ OOOOO 3323883<fu",
"7g:g>30upi @@@@ XXXXX 5g::g3w:iu",
"wg:>j4:aip @@@@@ OOO 55>::j3;yii",
"7>:vk<-yie @@@@@ OOO r4>y>b3--ii",
"386xk<<riii         ky388-b3<$ii"
};
