/* XPM */
static char *_d267d0ae5614c49bb1466fb80423081grOs9E0nSZlkwgCC[] = {
/* columns rows colors chars-per-pixel */
"32 32 99 2 ",
"   c black",
".  c #312216",
"X  c #453421",
"o  c #476E31",
"O  c #467231",
"+  c #4E7332",
"@  c #517931",
"#  c #202654",
"$  c #606A78",
"%  c #C01818",
"&  c #F71818",
"*  c #ED1C24",
"=  c #F72929",
"-  c #92470C",
";  c #92490E",
":  c #B96B24",
">  c #5B9E3C",
",  c #619B3D",
"<  c #5CA33E",
"1  c #63A337",
"2  c #62A33C",
"3  c #63AC3F",
"4  c #69AB3E",
"5  c #77A337",
"6  c #76A038",
"7  c #70AE3F",
"8  c #75B13D",
"9  c #7AB53D",
"0  c #549C44",
"q  c #599F42",
"w  c #589A5A",
"e  c #659857",
"r  c #71995D",
"t  c #56A145",
"y  c #5AA143",
"u  c #5FA840",
"i  c #62A644",
"p  c #64AB44",
"a  c #69AB42",
"s  c #6AA14B",
"d  c #64AC48",
"f  c #72AE42",
"g  c #78AC4C",
"h  c #66B142",
"j  c #6BB445",
"k  c #6FBA45",
"l  c #6CB449",
"z  c #6FB849",
"x  c #74B443",
"c  c #7BB543",
"v  c #72BA44",
"b  c #7DBA43",
"n  c #73B448",
"m  c #70B949",
"M  c #7EC040",
"N  c #84B73E",
"B  c #81BB3D",
"V  c #89BF3E",
"C  c #85C13E",
"Z  c #8DC33D",
"A  c #90C53C",
"S  c #81B740",
"D  c #81B941",
"F  c #81BF48",
"G  c #FFAA55",
"H  c #83C143",
"J  c #8CC542",
"K  c #84C249",
"L  c #001598",
"P  c #00189F",
"I  c #072495",
"U  c #0000AA",
"Y  c #0721A6",
"T  c #0728A0",
"R  c #626281",
"E  c #6F6F8F",
"W  c #6D7682",
"Q  c #7D7D9D",
"!  c #818192",
"~  c #8A8A9C",
"^  c #878BA4",
"/  c #898CA4",
"(  c #9797B7",
")  c #9A9AB1",
"_  c #A0A0B3",
"`  c #A4A4B4",
"'  c #A2A2C2",
"]  c #B3B3C6",
"[  c #B5B5CE",
"{  c #BBBBC9",
"}  c #C8BFE7",
"|  c #C0C0CB",
" . c #D0D0D9",
".. c #D9D9DB",
"X. c #DADAE0",
"o. c #F7F5EC",
"O. c #ECECF2",
"+. c gray97",
"@. c gray98",
/* pixels */
"y y y p d 3 < l b     l J w           e < q     y y p a y < c B ",
"y a s n j p i x   U U   H   U U U U U   i   U U   a l p p i b S ",
"x J c D Z q c x   U U U   U U U U U U U   U U U   9 J y c b v v ",
"x J S J Z q 9 b   U G G U U U U U U U U U G G U   B A y x b v v ",
"y d d H Z q q l   U G       U U U U U       G U   4 J y y y v v ",
"m z y y < n l u   U   U U U U U U U U U U U   U   < > l l l < K ",
"v v t t y k k <   U U U U U U U U U U U U U U U   y t v k z t H ",
"M M h j j j d   U U U Y U U U U U U U U U Y U U U   j h p d 0 h ",
"z H         h   U U U +.+.U U U U U U U +.+.U U U   v d       j ",
"m   +.@.+.$     U U P +.+.+.U U U U U +.+.+.U U U   r   +.+.+.  ",
"  +./ _ ~ !   j   U U +.+.+.I U U U T +.+.+.L U   J   ! ~ ) ^   ",
"  $ Q +.X.....      U G +.+.  +.+.+.  @.+.G #       ` ..X.[ Q   ",
"Z   @.W  .O.O.  G G   G G G +.+.+.+.+.o.G G   G G   +.O. .+.  < ",
"  R ( { { ' '   G G G   G G G       G G G   G G G   +.' | ] (   ",
"  R R R R E E       G G   ; : X   . - ;   G G G G   +.E +.+.R   ",
"c             y y b     G                                     b ",
"9 q y F J a y y y b l a   U G G G G G * * * *   q 1 A d y y q b ",
"a q c S N y j < q v x S   U U         * +.+.*   c c D y j j y n ",
"7 < b b b y l u < v b V   U U   j y   +.+.+.@.  c b b y j m y j ",
"C A k k v d y l v v c g   U U   , v   +.= = +.  v v m d y t v v ",
"p v v < y y q b Z < 3             s   * & & *   v m > q y > J < ",
"< h j p u d a b H 3   } } } } }  .    * & & *   l l y a a 4 C 3 ",
"u h j u y a a b H p   } } } } } }   v   % %   a j l u i a 3 V 3 ",
"< < d h a c b v k v   * * * * * *   6 J     < q p d d S c b v k ",
"V c D 2 y k m k j y   * * +.+.* *   o N 9 H Z S 9 b y k v v j y ",
"3 9 v < y J v 3 y K   * +.+.+.+.*   + 2 k 4 2 x v m q J v m < K ",
"d v k < y Z v < q A   +.+.* * +.+.  @ y k d u v v m q Z v v q H ",
"t y y u d d y m D D   +.* * * * +.  @ 9 y t y y q q p p y y S S ",
"a B 8 F C y 8 v v v   * * * * * &   O v j p i B 9 8 B y f x x v ",
"a B 8 9 9 i f c 9 v p   * & & & &   O v j p i 9 8 9 D y f x v b ",
"4 9 7 Z Z q 4 x v v l p   * * *   n , p H j u 9 8 8 J y 4 3 v v ",
"y d p F Z q q l k v v j         t 5 D t Z x y p d p Z q q < v v "
};
