/* XPM */
static char *a6535391e4a14f2795cd43cc4667026dGxlU8loDGBoJrG5S[] = {
/* columns rows colors chars-per-pixel */
"32 32 91 1 ",
"  c #000000",
". c #080000",
"X c #010909",
"o c #0D0D0D",
"O c #020248",
"+ c #091E6B",
"@ c #7D5159",
"# c #880015",
"$ c #ED1C24",
"% c #5D9F3C",
"& c #5CA33D",
"* c #61A33D",
"= c #65AD3E",
"- c #6AA93D",
"; c #70AE3F",
": c #67B03E",
"> c #70B134",
", c #74B03E",
"< c #7BB53E",
"1 c #77B83E",
"2 c #7ABA3C",
"3 c #579F44",
"4 c #599F42",
"5 c #579F49",
"6 c #56A145",
"7 c #5BA243",
"8 c #5FA842",
"9 c #65A647",
"0 c #64AB44",
"q c #69AC43",
"w c #64AC49",
"e c #68AC49",
"r c #73AE41",
"t c #67B144",
"y c #6BB445",
"u c #6FBA45",
"i c #6CB349",
"p c #6EBA49",
"a c #73B444",
"s c #7DB543",
"d c #73BA43",
"f c #7CBA43",
"g c #75B448",
"h c #79B649",
"j c #70B849",
"k c #7DC143",
"l c #81BB3E",
"z c #89BE3D",
"x c #85C23D",
"c c #8CC33E",
"v c #8EC63E",
"b c #8FC63E",
"n c #93C439",
"m c #90C63D",
"M c #81B840",
"N c #81B941",
"B c #82B941",
"V c #81BF48",
"C c #FFAA55",
"Z c #F0A25F",
"A c #F9A95A",
"S c #FBAB5B",
"D c #FFAF5F",
"F c #82C041",
"G c #83C245",
"H c #8DC243",
"J c #8CC343",
"K c #8AC441",
"L c #8CC540",
"P c #8EC640",
"I c #8BC644",
"U c #88C646",
"Y c #8EC645",
"T c #84C348",
"R c #02029D",
"E c #1C289D",
"W c #0309A1",
"Q c #090DA6",
"! c #0000AA",
"~ c #0403A8",
"^ c #0404AD",
"/ c #0707AC",
"( c #0606AD",
") c #0909AD",
"_ c #0D0BAE",
"` c #0E0EAE",
"' c #0E0EAF",
"] c #1010AF",
"[ c #1C1CB3",
"{ c #2728A6",
"} c white",
/* pixels */
"7749w=7ysMqiYjt           0q&%sl",
"7q9iy09af2e    !!!!!!!!!!  w 0sf",
"aLMHc4<add !!!!!!!!!!~~_!(( ! dd",
"rLsHz4<fdd0 !!!!!!!! AAZ!!!(( dd",
"7wwGc46idud:  ]!!!!! ASAS!!!! dd",
"jp77*ai8&Hk !!!!!!!!!  AD!!!!! T",
"dd677dd&6v !!!!!!!!!!! A!!!!!! H",
"kktytyw6   !!!!!!!!!!!!]``!!!! w",
"pxMdy0t00yu !!!!!!!!!!!_}}!!!! y",
"dKvxkt=0tyd1  !!!!!!!!!}}}  ! qy",
"dvvxkt0q0y  !!!!!!!!!!!}}}  ! wy",
"dkvvvy77  !!!!!!!!!!!!!}}}  ! wy",
"mLyup&     !!!!!!!!!! !}}}    d&",
"mm122  }}}}      !!!! ACC}}}} 2%",
"LHHm }}}}}}} AAAA  !! AACCCC   8",
"<76V }}}}}}} AAAAAA !! ACCC 743s",
"<37Vc    }}}}   AACA    AA w777f",
"r%a  }}}}     !     AAAA! M7yi6a",
"q* @@#####!!!  (!! AAAAA ff7yp7y",
"2X}}@@@###@!!!!!! AAAAA dddw6&pd",
"0 ##}}@@##     (! AAAA ddp447%v&",
" @##}}@@@ {E+O  ! AAA &tyi7qq-l=",
" @#}7qqfF  [)R  !!   q70yi7qq-  ",
".#0wwMsddpd Q~!W !!!! &70wqfs $ ",
"#l#*6ddpi7=p !! l !!!!  2s6  $$ ",
"-fd&7Ud=&Tkt&  dah !!!}}   }$$$ ",
"w#d&0v1&7vfy7&8ddM !}}}}$}}}$$  ",
"6760ww6iMMeqvut5ddd }}}$$}}$$  M",
"q2;M29;sdfwqf77wx00X$$$$}}$   df",
"yl,l27;add0wd8wwx0=X$$$$}}$ radd",
"q<;Hc4-<ddyw0daa>gy=  $}}oo4-=dd",
"700Vm43tdddq7nH<6zM5L    qL33%dd"
};
