/* XPM */
static char *_e164256c4f04c1df1ecce941038318e9xmeuyPt7hpYXko3[] = {
/* columns rows colors chars-per-pixel */
"32 32 73 1 ",
"  c #000000",
". c #ED1C24",
"X c #B97A57",
"o c #5B9E3C",
"O c #5CA23E",
"+ c #63A337",
"@ c #63A53B",
"# c #61A93E",
"$ c #69AA3D",
"% c #70AE3F",
"& c #74B03E",
"* c #77B83B",
"= c #7CBC3E",
"- c #509843",
"; c #599F42",
": c #57A144",
"> c #5AA243",
", c #5FA945",
"< c #65A747",
"1 c #64AB44",
"2 c #69AB43",
"3 c #65AD48",
"4 c #66B140",
"5 c #6BB445",
"6 c #6FB944",
"7 c #6DB54A",
"8 c #6FB849",
"9 c #72B143",
"0 c #7AB443",
"q c #72BA44",
"w c #7CBA42",
"e c #7CB844",
"r c #78BF45",
"t c #72B548",
"y c #70BA48",
"u c #70B94A",
"i c #7EC040",
"p c #7FC242",
"a c #7CC044",
"s c #84B73E",
"d c #80B93C",
"f c #81B93E",
"g c #80BC3D",
"h c #84BC3E",
"j c #84C03E",
"k c #86C33E",
"l c #8CC43B",
"z c #89C33F",
"x c #8EC23E",
"c c #8AC43D",
"v c #8FC63D",
"b c #8FC43F",
"n c #8DC63F",
"m c #90C53B",
"M c #80B840",
"N c #81B841",
"B c #82B941",
"V c #81BF48",
"C c #FAA550",
"Z c #FFAA55",
"A c #86C144",
"S c #8DC242",
"D c #8EC243",
"F c #8AC441",
"G c #8BC643",
"H c #8EC641",
"J c #8AC344",
"K c #83C149",
"L c #84C348",
"P c #0000AA",
"I c #001AA1",
"U c #011BA1",
"Y c white",
/* pixels */
">>>11               >>;>>>12Ooed",
">2<   PPPPPPPPPPPPPP  >2<2711<=w",
"9H   PPPPP ZPPPPPPPPPP H=dH;0wuq",
"9H PPPPPPP ZZPPPPPPPPPP  dH;0eqq",
",3     PPP ZZZZPPPPPPPPPP H>;;qq",
"7u>   PPPP ZZPPPYYPPPPPPP O877OL",
"uq   PPPPPPPPPPPYYYYPPPPP :66u:F",
"ra PPPPPPPPPPPPPYYYYYYPPP 5$31-3",
"6k PPPPPPPPPPPPPYYYYY  PP u15215",
"0F PPPPPPPPPPPPPYYYYY  YP a31115",
"0F PPPPPPPPPPZZZZYYYY  Y Ga51225",
"rp PPPPPPPPPPZZXZZZZZZ    n5O>15",
"cn PPP PPPPPPZZZXXXZZCZ  56>156O",
"mm PP  PPPPP   ZZZZZZZ  **=>56=o",
"nH    IPPPPP           Dclx>5qFO",
"0::Kx IPPPPP ZZ PZZZZ B;;+x1O;>e",
"&;>KD IPPP  ZZZ PZZZZ h;;+m1>>;e",
"$;0Bs  P   ZZ   PCZZZ 0>00B>57;u",
"9Owwe>    ZZ PPP ZZZZ %Oewe>58;q",
"jm6q63:76q  PPPP ZZZZ =nquq1>;6q",
"1r6Oo;;0n YY PPPP  ZZ ,*87o>>oFO",
"O$54,<2w YYYY PPPPP Z YY57>$2$k2",
">45,,22w YYYY PPPPPP  YY57,12$h#",
"OO343Bdqu YY PPPP PPP O;112ewwq6",
"jw=@;uuq7;   PPP  PPP xBd0:uqq5>",
"$qrO;Lq#OLr YYYY YYYY +qqt:JrqOK",
"1qqO>HrO;na YYYY YYYY   q7:m*q;J",
">>>,31;q   Y.... ....YY   11:;wB",
"1h%=d>  ..YYY... ...YYY...  29qw",
"2d&wh .....YY... ...YY...... 0qq",
"2=&F .......YYY. .YYY........ qq",
"113A                          qq"
};
