/* XPM */
static char *ff7f28eb484d44b693e5108ded600914uDOrUveBcVdZU1Gj[] = {
/* columns rows colors chars-per-pixel */
"32 32 86 1 ",
"  c #000000",
". c #080000",
"X c #010909",
"o c #0D0D0D",
"O c #020248",
"+ c #091E6B",
"@ c #7D5159",
"# c #880015",
"$ c #ED1C24",
"% c #5B9D3A",
"& c #57A03F",
"* c #5CA23D",
"= c #62A53C",
"- c #64AD3F",
"; c #6AAB3E",
": c #70AE3F",
"> c #70B134",
", c #75B13D",
"< c #7AB53D",
"1 c #7CBC3C",
"2 c #549C44",
"3 c #599F42",
"4 c #579F49",
"5 c #56A044",
"6 c #5AA243",
"7 c #5FA943",
"8 c #5AA048",
"9 c #64A645",
"0 c #64AB44",
"q c #69AC42",
"w c #64AC48",
"e c #69AF48",
"r c #71AE41",
"t c #66B141",
"y c #6BB345",
"u c #6FBA44",
"i c #6DB549",
"p c #6FB849",
"a c #73B343",
"s c #7AB544",
"d c #72BA44",
"f c #7DBA43",
"g c #74B548",
"h c #70B948",
"j c #7DC042",
"k c #84B73E",
"l c #81BB3D",
"z c #89BE3D",
"x c #85C33B",
"c c #8CC23E",
"v c #8DC63F",
"b c #93C439",
"n c #90C63D",
"m c #81B740",
"M c #80B840",
"N c #81B941",
"B c #81B942",
"V c #81BF48",
"C c #FFAA55",
"Z c #F0A25F",
"A c #F9A95A",
"S c #FFAF5F",
"D c #82C041",
"F c #84C144",
"G c #8DC242",
"H c #8AC441",
"J c #8BC643",
"K c #8DC640",
"L c #8EC641",
"P c #84C348",
"I c #02029D",
"U c #1C289D",
"Y c #0604A7",
"T c #0309A1",
"R c #090DA6",
"E c #0101AA",
"W c #0403A8",
"Q c #0404AB",
"! c #0404AD",
"~ c #0707AC",
"^ c #0909AD",
"/ c #0D0BAE",
"( c #0E0EAF",
") c #1C1CB3",
"_ c #2728A6",
"` c white",
/* pixels */
"6669w-           hsf6666&69-6*fl",
"6q9 y  EEEEEEEEEE    66qq9p9q9ff",
"aL E ~~E/YWEEEEEEEEEE 9Lflv3sfdd",
"rL ~~EEEZAA EEEEEEEE 09Lk<L3asdd",
"7w EEEEAAAA EEEEE(  na6ww;v666dd",
"i EEEEESA  EEEEEEEEE ahp&**pii&P",
"h EEEEEEA EEEEEEEEEEE dd655hup5v",
"j EEEE(((EEEEEEEEEEEE   tyyt092w",
"d EEEE``(EEEEEEEEEEE epDxfpwty9y",
"dH E  ```EEEEEEEEE  aypxLHfe09ty",
"dH E  ```EEEEEEEEEEE  pcvLjy09ty",
"fj E  ```EEEEEEEEEEEEE  nncy*57i",
"LL    ```E EEEEEEEEEE     u6yyd5",
"vv ````CCA EEEE      ````  6tu1&",
"v   CCCCAA EE  AAAA ``````` yaL=",
"<36V CCCA EE AAAAAA ``````` 633f",
",33Vc AA    ACAA   ````    w663s",
"r3slk6 EAAAA     E     ````  i3d",
":*fff3i AAAAA EEQ  EEE#####@@ 6h",
"Dnddhw6i AAAAA EQEEEE@###@@@``Xd",
"-dh=363fv AAAA EQ     ##@@``## *",
"7-y0790fM0 AAA E  O+U_ @@@``##@ ",
"  t779;fD-y   EE  I^)  qyi7q`#@ ",
" $ tyffdhh EEEE TEER &*3099fff#.",
" $$  hdu  EEEE M E~ dxcf1s6pu#u#",
" $$$`   ``EEE -dd  =h;=adg3Ldp5F",
"  $$```$````E *hdm,3h07udi3c1h#v",
"6  $$``$$``` py8dhdf%66336ww63fk",
"el   $``$$$$X86wx0-dt99l,,l6qads",
"ql,l $``$$$$X77wx9-du991,,x6rasd",
"q<,Dcoo``$  9aga>ah-By7<a<v6;qdd",
"6qwFz36    t6bH18zM4va6ww;v&5%ud"
};
