/* XPM */
static char *_a30abd3b8384733f3381768fa10399eB0cvxyaunXLff38k[] = {
/* columns rows colors chars-per-pixel */
"32 32 48 1 ",
"  c #9B6F13",
". c #9C6F12",
"X c #9C7012",
"o c #9D7012",
"O c #9C7013",
"+ c #9D7013",
"@ c #9F7213",
"# c #9F7214",
"$ c #A17313",
"% c #A07214",
"& c #A37514",
"* c #A47514",
"= c #A57615",
"- c #B27D17",
"; c #B07D18",
": c #B07E18",
"> c #B37E18",
", c #B37F18",
"< c #B48018",
"1 c #B48019",
"2 c #B88319",
"3 c #B98319",
"4 c #BA8419",
"5 c #BA841A",
"6 c #BD861B",
"7 c #BE871B",
"8 c #BF871B",
"9 c #C0881B",
"0 c #C1881B",
"q c #C38A1C",
"w c #C48B1C",
"e c #C58B1C",
"r c #C68C1D",
"t c #C98E1D",
"y c #C98E1E",
"u c #CC901E",
"i c #CD911F",
"p c #CE921F",
"a c #CF921F",
"s c #DB9A22",
"d c #DC9B22",
"f c #DD9B22",
"g c #DD9C23",
"h c #DE9C23",
"j c #E09E23",
"k c #E09F24",
"l c #E29F24",
"z c #E3A025",
/* pixels */
"%OO;zzl OOOhzz<OO*zzzyOOOhzz0oOo",
"%OO;zzl OOOzzz<OO*zzzyOOOhzz0OOX",
"%OO;zll OOOzzz<OO=zzzyOOohzz0OO ",
"www0333w0ww<556re04425ww04555ew0",
"ww05333w0ee5336rww2225wwe4457ew0",
"lzlsOO+lzzhOOOyzzh OO-zzzOOO5zzz",
"hzzpOO+zzzhOOOrzzhO O-zzz$OO5zzz",
"jzzpOO+zzzhOOOyzzh  O-zzzOOO5zzz",
"$OO;zjz..++ljz;OO*jjjyOOOhhz0OOO",
"$OO;zzjO++ lzz<OO*zzzyOOOhzz0OOo",
"$OO;zzjOOO+lzz1OO*zzzyOOOdzzwOOo",
"yyyq<-<yyyy;1;qyyy<,-5yyu<<-5tue",
"yyy0<;<yyyy;<<qyyy-<;6yyu<<<5uru",
"lljaOOOzzzg+O+rzzh.OO<zzzOOO5zzz",
"hzzpOOOzzzh+O+uzjf OO;zzzOOO5zzz",
"hhhp%%Ojhhs+++rghs$OO1hhh*O@5hdd",
"OXO-zzj OOOlzz;+O$zzztO  hzz0OoO",
"OOO;zzj .++lzz<+O*zzzyOOohzz7OX ",
"$OO-zzjO.O.lzz; O$zzzyOOXhzz0OX ",
"707660066666q7770070767766676666",
"7777060677607q577066766706706776",
"zzzaOOOzzzhOOOrzzs OO-zzzOOO4zzz",
"zzzuOOOzzzhOOOyzzhOOO-zzzOOO6zzz",
"hzzpOOozzzhOO+yzzs OO-zzz$OO4zzz",
"$OO<dzdOOOOjzh<+O*zjjtOOOhhz0OOO",
"OOO<zzzOOO$lzz;.O*zzzuOOOhzz0XOO",
"$oo;zzzOOOOjzz<.O*zzztOOXhzz6OOO",
"eeww2227e0w45<wwer<333ww04220www",
"www0222wee044470ew<555www5246www",
"zzzpXXOzzzhOOOtzzhOOO-zzzOOO4zzz",
"hzzuOOOzzjhOXOuzzsOOO-zzzOOO5zzz",
"hzzuOOOzjzsOOOezhsOOO-zhj*OO5zhj"
};
